<?xml version="1.0" encoding="utf-8"?>
<!-- Generator: Adobe Illustrator 18.0.0, SVG Export Plug-In . SVG Version: 6.00 Build 0)  -->
<!DOCTYPE svg PUBLIC "-//W3C//DTD SVG 1.1//EN" "http://www.w3.org/Graphics/SVG/1.1/DTD/svg11.dtd">
<svg version="1.1" id="Layer_1" xmlns="http://www.w3.org/2000/svg" xmlns:xlink="http://www.w3.org/1999/xlink" x="0px" y="0px"
	 width="512px" height="512px" viewBox="-48 -128 512 512" enable-background="new -48 -128 512 512" xml:space="preserve">
<g>
	<path d="M-25.8-4.1c13.5,7.1,201.6,109.7,208.6,113.4c7,3.7,14.2,5.4,25.2,5.4c11.1,0,18.2-1.7,25.2-5.4S428.3,3.1,441.8-4.1
		c5-2.6,13.5-7.3,15.4-12.6c3.2-9.4-0.2-12.9-13.9-12.9H208H-27.3c-13.7,0-17.1,3.7-13.9,12.9C-39.4-11.2-30.9-6.6-25.8-4.1z"/>
	<path d="M453.8,1.5c-10.1,5.2-100.7,69.7-160.6,108.4l101.2,113.8c2.5,2.5,3.6,5.4,2.2,6.9c-1.5,1.4-4.7,0.6-7.3-1.7L267.9,126.5
		c-18.3,11.8-31.3,19.9-33.5,21.2c-9.5,4.8-16.1,5.4-25.2,5.4s-15.8-0.6-25.2-5.4c-2.3-1.2-15.1-9.4-33.5-21.2L29.2,228.9
		c-2.5,2.5-5.8,3.2-7.3,1.7c-1.5-1.4-0.4-4.4,2.1-6.9l101-113.8C65.1,71.1-26.5,6.6-36.6,1.5c-10.8-5.5-11.4,1-11.4,6
		c0,5,0,252.3,0,252.3c0,11.4,16.9,25.7,28.9,25.7h228.3h228.3c12.1,0,26.5-14.4,26.5-25.7c0,0,0-247.4,0-252.3
		C464,2.3,464.7-4.1,453.8,1.5z"/>
</g>
</svg>
