<?xml version="1.0" encoding="utf-8"?>
<!-- Generator: Adobe Illustrator 18.0.0, SVG Export Plug-In . SVG Version: 6.00 Build 0)  -->
<!DOCTYPE svg PUBLIC "-//W3C//DTD SVG 1.1//EN" "http://www.w3.org/Graphics/SVG/1.1/DTD/svg11.dtd">
<svg version="1.1" id="Layer_1" xmlns="http://www.w3.org/2000/svg" xmlns:xlink="http://www.w3.org/1999/xlink" x="0px" y="0px"
	 width="512px" height="512px" viewBox="0 0 512 512" enable-background="new 0 0 512 512" xml:space="preserve">
<path stroke="#000000" stroke-miterlimit="10" d="M256,0C114.6,0,0,117.6,0,262.5c0,116,73.4,214.3,175.1,249c1.6,0.3,3,0.5,4.3,0.5
	c9.5,0,13.1-7,13.1-13c0-6.3-0.2-22.7-0.3-44.7c-9.6,2.2-18.2,3.1-25.8,3.1c-49.3,0-60.5-38.3-60.5-38.3
	c-11.7-30.3-28.5-38.4-28.5-38.4c-22.3-15.7-0.1-16.1,1.6-16.1c0.1,0,0.1,0,0.1,0c25.7,2.3,39.2,27.2,39.2,27.2
	c12.8,22.4,29.9,28.7,45.3,28.7c12,0,22.9-3.9,29.3-6.9c2.3-16.9,8.9-28.5,16.2-35.1c-56.8-6.6-116.6-29.1-116.6-129.7
	c0-28.7,9.9-52.1,26.3-70.4c-2.6-6.6-11.4-33.4,2.5-69.5c0,0,1.8-0.6,5.7-0.6c9.3,0,30.2,3.5,64.7,27.5c20.5-5.8,42.3-8.7,64.1-8.8
	c21.7,0.1,43.7,3,64.1,8.8c34.5-24,55.4-27.5,64.7-27.5c3.9,0,5.7,0.6,5.7,0.6c13.9,36.1,5.1,62.9,2.5,69.5
	c16.3,18.4,26.3,41.8,26.3,70.4c0,100.8-59.9,123-116.9,129.5c9.1,8.1,17.4,24.1,17.4,48.6c0,35.1-0.3,63.4-0.3,72
	c0,6.2,3.5,13.1,13,13.1c1.4,0,3-0.1,4.6-0.5C438.7,476.8,512,378.4,512,262.5C512,117.6,397.4,0,256,0z"/>
</svg>
