<?xml version="1.0" encoding="utf-8"?>
<!-- Generator: Adobe Illustrator 18.0.0, SVG Export Plug-In . SVG Version: 6.00 Build 0)  -->
<!DOCTYPE svg PUBLIC "-//W3C//DTD SVG 1.1//EN" "http://www.w3.org/Graphics/SVG/1.1/DTD/svg11.dtd">
<svg version="1.1" id="Layer_1" xmlns="http://www.w3.org/2000/svg" xmlns:xlink="http://www.w3.org/1999/xlink" x="0px" y="0px"
	 width="512px" height="512px" viewBox="0 0 512 512" enable-background="new 0 0 512 512" xml:space="preserve">
<g>
	<path stroke="#000000" stroke-miterlimit="10" d="M471.1,0H43.7C20.4,0,0,16.8,0,39.9v428.2C0,491.3,20.4,512,43.7,512h427.2
		c23.5,0,41.1-20.8,41.1-43.9V39.9C512.1,16.8,494.4,0,471.1,0z M158.7,426.8H85.4V198.7h73.4V426.8z M124.6,164H124
		c-23.5,0-38.7-17.5-38.7-39.3c0-22.3,15.6-39.3,39.6-39.3s38.7,16.9,39.2,39.3C164.2,146.6,149,164,124.6,164z M426.8,426.8h-73.4
		V302.1c0-29.9-10.7-50.3-37.2-50.3c-20.3,0-32.3,13.7-37.6,27.1c-2,4.8-2.5,11.3-2.5,18v129.9h-73.4V198.7h73.4v31.7
		c10.7-15.2,27.3-37.1,66.2-37.1c48.1,0,84.6,31.7,84.6,100.2V426.8z"/>
</g>
</svg>
