<?xml version="1.0" encoding="utf-8"?>
<!-- Generator: Adobe Illustrator 18.0.0, SVG Export Plug-In . SVG Version: 6.00 Build 0)  -->
<!DOCTYPE svg PUBLIC "-//W3C//DTD SVG 1.1//EN" "http://www.w3.org/Graphics/SVG/1.1/DTD/svg11.dtd">
<svg version="1.1" id="Layer_1" xmlns="http://www.w3.org/2000/svg" xmlns:xlink="http://www.w3.org/1999/xlink" x="0px" y="0px"
	 width="512px" height="512px" viewBox="0 0 512 512" enable-background="new 0 0 512 512" xml:space="preserve">
<g>
	<path stroke="#000000" stroke-miterlimit="10" d="M256.1,0C114.7,0,0.1,114.6,0.1,255.9c0,104.8,63.1,194.8,153.2,234.5
		c-0.7-17.8-0.1-39.3,4.5-58.7c4.9-20.8,32.9-139.5,32.9-139.5s-8.2-16.3-8.2-40.4c0-37.9,21.9-66.3,49.4-66.3
		c23.3,0,34.5,17.5,34.5,38.4c0,23.4-15,58.4-22.6,90.8c-6.4,27.2,13.6,49.2,40.4,49.2c48.4,0,81.1-62.3,81.1-136.1
		c0-56.1-37.8-98-106.5-98c-77.6,0-126,57.9-126,122.6c0,22.3,6.6,38,16.9,50.2c4.7,5.6,5.4,7.9,3.7,14.3c-1.3,4.7-4,16-5.3,20.6
		c-1.7,6.5-7,8.8-12.8,6.4c-35.8-14.6-52.4-53.7-52.4-97.8c0-72.7,61.4-159.9,182.9-159.9c97.7,0,162,70.7,162,146.6
		c0,100.4-55.9,175.4-138.1,175.4c-27.7,0-53.6-15-62.5-31.9c0,0-14.9,59-18.1,70.4c-5.4,19.8-16,39.4-25.7,54.8
		c23,6.7,47.3,10.5,72.6,10.5c141.3,0,255.9-114.6,255.9-255.9C512,114.6,397.4,0,256.1,0z"/>
</g>
</svg>
