<?xml version="1.0" encoding="utf-8"?>
<!-- Generator: Adobe Illustrator 18.0.0, SVG Export Plug-In . SVG Version: 6.00 Build 0)  -->
<!DOCTYPE svg PUBLIC "-//W3C//DTD SVG 1.1//EN" "http://www.w3.org/Graphics/SVG/1.1/DTD/svg11.dtd">
<svg version="1.1" id="Layer_1" xmlns="http://www.w3.org/2000/svg" xmlns:xlink="http://www.w3.org/1999/xlink" x="0px" y="0px"
	 width="512px" height="654.1px" viewBox="0 -71 512 654.1" enable-background="new 0 -71 512 654.1" xml:space="preserve">
<path stroke="#000000" stroke-miterlimit="10" d="M0,448.1V583h425.4V312.3l-22.1,2.5l-22.9,2.5l-2.5,112l-2.5,113H40.9V313.2H0
	V448.1L0,448.1z M73.6,468.6v24.5h261.8V444H73.6L73.6,468.6L73.6,468.6z M77.5,371.9l-2.6,24.4l260.2,28.3l5.3-48.6L80.2,347.6
	L77.5,371.9L77.5,371.9z M97.1,256.5l-6.4,23.7l252.9,67.9l12.7-47.5l-252.8-67.8L97.1,256.5z M150.9,121.9l-13,20.7l221.5,139.5
	l26.1-41.6L163.9,101.1L150.9,121.9z M276.2-3.4L256,10.4l148.5,215.7l40.5-27.9L296.3-17.3L276.2-3.4L276.2-3.4z M439.9-66.5
	L415.8-62l48,257.3l48.2-9.1L464-71L439.9-66.5L439.9-66.5z"/>
</svg>
