<?xml version="1.0" standalone="no"?>
<!DOCTYPE svg PUBLIC "-//W3C//DTD SVG 20010904//EN"
 "http://www.w3.org/TR/2001/REC-SVG-20010904/DTD/svg10.dtd">
<svg version="1.0" xmlns="http://www.w3.org/2000/svg"
 width="260.000000pt" height="260.000000pt" viewBox="0 0 260.000000 260.000000"
 preserveAspectRatio="xMidYMid meet">
<metadata>
Created by potrace 1.11, written by Peter Selinger 2001-2013
</metadata>
<g transform="translate(0.000000,260.000000) scale(0.100000,-0.100000)"
fill="#000000" stroke="none">
<path d="M1170 2594 c-516 -64 -929 -393 -1097 -874 -51 -144 -67 -247 -67
-420 0 -224 37 -385 134 -580 182 -362 511 -612 920 -697 117 -24 363 -24 480
0 270 56 487 172 676 361 188 188 305 407 361 676 12 60 17 131 17 240 0 109
-5 180 -17 240 -109 526 -494 918 -1012 1031 -88 19 -318 32 -395 23z m114
-1204 c130 -325 236 -592 236 -595 0 -3 -22 -5 -49 -5 l-48 0 -74 185 -74 185
-284 -3 -283 -2 -72 -180 -72 -180 -51 -3 -51 -3 225 563 c124 310 231 578
238 596 13 31 16 32 68 32 l55 0 236 -590z m831 200 c24 -9 26 -14 20 -43 -10
-45 -17 -50 -51 -32 -55 28 -138 13 -198 -37 -19 -16 -50 -59 -68 -96 l-33
-67 -3 -262 -4 -263 -39 0 -39 0 0 400 0 400 34 0 c32 0 34 -2 40 -46 3 -26 6
-60 6 -77 l0 -30 29 44 c53 79 124 117 223 118 31 1 69 -4 83 -9z"/>
<path d="M981 1847 c-6 -16 -11 -30 -11 -33 0 -2 -50 -130 -111 -285 -61 -154
-109 -282 -106 -285 2 -2 112 -3 244 -2 l241 3 -70 175 c-39 96 -94 238 -124
315 -50 131 -53 138 -63 112z"/>
</g>
</svg>
